<svg height="1090pt" preserveAspectRatio="xMidYMid meet" viewBox="0 0 1280 1090" width="1280pt" xmlns="http://www.w3.org/2000/svg"><path d="m12416 10718c-30-246-53-278-283-388l-123-59-109 24c-61 14-119 25-130 25-16 0-21 6-21 28 0 51 46 129 164 281 9 12 3 13-39 7-175-25-283-99-390-263 0-1-53 11-116 28-305 80-495 111-694 112-177 0-289-22-394-79-120-65-376-85-551-44-47 11-96 23-110 26-39 8 108-92 170-116 89-35 226-50 460-50 235 0 364-12 449-41 40-13 46-17 21-13-159 24-215 26-535 18-388-10-530-8-633 8-40 6-74 9-76 7s-6-13-8-23c-2-15 6-22 43-31 26-7 77-26 115-43 38-18 193-68 344-112 151-45 277-83 279-86 2-2-59-4-136-4-172 0-250-11-713-96-122-23-174-27-330-28-170-1-191 1-258 23-104 34-178 85-252 175-34 42-64 75-66 73-7-7 46-197 66-238 60-119 151-192 341-272 171-72 220-84 404-102 217-21 336-36 356-43 10-4-78-7-194-7-229 0-266-5-527-70-181-45-296-59-427-52-178 8-241 32-536 199-253 143-334 176-487 199-69 10-134 19-145 19-21 0 25-35 236-180 196-135 260-186 414-330 147-138 241-208 353-262l67-32-35-9c-67-17-337-10-465 11-66 11-181 31-255 43-197 33-472 32-740-5-416-56-665-70-834-46-38 6-71 9-73 6-6-6 146-124 248-192 253-167 524-264 734-264 125 0 238-44 306-118 53-58 151-183 147-187-8-6-229 16-278 29-30 7-127 34-214 60-212 62-364 80-616 73-102-3-237-12-300-21s-153-21-200-26c-152-20-354-96-754-286-121-57-220-103-221-101 0 1-10 22-20 47-46 110-112 186-198 232-36 20-57 23-142 22-87 0-111-4-182-31-184-70-449-262-718-521-242-234-341-297-501-324-132-22-291 33-402 140-148 143-224 337-226 579-1 68-3 123-6 123-8-1-167-224-225-316-115-182-132-310-55-398 17-18 30-37 30-41 0-29-213 174-348 333-53 62-99 109-102 105-7-9-55-355-65-463-12-142 25-284 94-362 17-20 31-38 31-40 0-12-111 16-191 49-166 66-290 164-570 451-190 195-195 200-252 313l-58 114 6-65c43-452 286-1012 562-1292 78-80 70-85-58-38-292 106-701 418-911 693l-63 82-3-45c-2-25-2-157 1-295 4-284 11-319 83-474 55-118 113-199 217-304 169-170 389-314 714-467l142-67-42-7c-90-13-482-18-574-7-239 30-424 134-513 289-35 61-44 69-67 54-15-10 22-113 90-250 228-458 612-850 1042-1065 229-114 415-163 665-173 128-6 141-5 251 24 229 61 400 138 594 267 161 107 262 191 426 354 199 199 345 392 465 613l56 103-6-55c-3-31-15-91-26-134-11-44-20-109-20-145 0-105-19-279-40-363-36-143-99-269-238-473-160-235-275-355-556-580-239-191-259-211-286-282-12-32-25-62-29-68-5-5-17-32-27-60-10-27-33-65-51-83-65-65-75-150-63-557 3-138 2-158-23-250-31-117-130-325-210-441-29-43-75-119-102-169-62-117-205-360-266-452-66-100-92-173-93-256-1-61 2-71 23-88 15-12 39-19 67-19h44l-15-37c-35-84-89-130-216-184-57-24-72-27-96-18-15 6-67 11-114 11-76 0-94-3-151-30-118-57-207-173-259-342-20-64-24-96-23-210 0-117 3-143 23-195 46-116 145-186 243-171 57 9 169 75 281 165 74 61 92 71 121 69 28-2 44 7 90 45 68 59 126 145 207 310 47 95 72 134 98 154 124 93 296 273 307 322 4 14 20 53 35 87 16 33 36 89 43 125 8 35 30 93 49 129 49 91 79 196 137 485 27 138 56 274 64 302 15 57 189 400 334 658 85 152 91 161 144 192 76 45 167 145 276 306 129 190 176 238 316 322 147 87 206 134 419 334 269 252 303 274 738 480 37 17 122 70 189 117s152 102 189 122c63 35 70 37 161 37 74 0 120-7 208-30 61-16 112-33 112-37 0-17-157-193-205-229-88-66-148-80-256-57-128 26-342-35-430-124-38-38-94-166-127-293-12-44-44-240-72-435s-61-409-74-475c-14-66-28-142-31-170-16-114-50-227-140-471-53-141-107-278-120-303-32-60-117-276-146-371-29-96-31-210-5-262 21-43 69-76 121-85 19-3 35-8 35-10 0-10-213-171-251-191-21-11-40-10-126 7-115 24-134 25-184 11-86-24-169-109-208-215-11-29-24-93-30-144-31-282 95-591 242-591 36 0 115 44 197 111 41 33 122 84 179 112 58 29 121 68 140 88 62 62 173 196 205 247 17 27 94 117 171 201s145 162 151 174c23 44 75 245 94 362 25 151 50 414 50 518 0 132 73 421 167 657 116 294 264 521 491 754 124 127 123 126 431 142 450 24 714 70 882 154 92 47 169 127 280 293 117 173 158 221 210 248 50 25 86 24 253-6 162-29 216-31 352-10 54 8 124 15 154 15 56 0 56 0 69-37 8-21 33-79 57-129 57-120 117-180 315-315 184-125 264-197 317-287 60-101 107-149 292-297 161-130 240-205 240-230 0-7-5-37-10-66-27-139-41-325-50-684-5-214-15-415-21-445-37-189-129-525-192-710-102-294-130-409-125-514 2-70 7-89 30-124 39-59 76-75 190-82 107-7 121-14 164-82 42-65 28-132-51-258-28-44-45-96-54-166l-8-55 351 2c298 2 369 0 468-16 65-10 120-16 124-13 3 3-27 57-67 119-122 194-128 205-143 248-22 60-53 98-221 271-165 171-200 224-215 331-14 95-12 268 4 324 7 28 41 145 74 260 70 241 106 406 122 555 9 86 23 137 78 289 36 102 73 214 82 249l17 64 130-163c72-90 159-200 195-244s75-99 86-122c29-55 77-189 86-236 25-135 110-210 211-187 59 14 111 12 125-5 26-31 15-105-29-203-45-97-46-118-20-222 11-44 70-103 129-129 109-48 178-56 477-56 155 0 284 3 288 6 3 4-30 81-74 170-83 171-158 283-206 309-15 8-54 54-86 101-94 140-202 270-425 509-276 296-351 382-440 502-73 98-154 228-154 246 0 6-13 15-29 20-21 8-49 43-116 148l-88 139 18 120c29 199 79 381 157 564 38 91 108 261 155 376 46 116 97 233 112 260 15 28 28 59 28 71 2 36 52 143 111 238 94 154 120 207 158 321 42 128 52 207 35 268-12 41-11 48 16 108 53 116 55 135 51 410-4 204-9 277-26 370-50 265-105 420-174 487l-34 32 47 50c123 131 222 451 274 880 19 160 35 269 44 292 5 15 12 14 73-7 153-53 269-134 384-265 32-36 94-103 140-150 45-47 89-100 99-118 9-19 20-71 25-117 10-95 26-134 73-169 49-38 98-52 283-81 189-31 250-29 322 7 40 20 52 34 89 103 23 44 48 102 55 128 9 37 16 47 28 44 9-2 22 4 28 14 9 15 8 21-8 32-18 13-17 17 26 138 24 68 49 132 54 141 27 48 4 94-94 181-83 75-96 102-116 241-11 74-30 133-115 360-35 93-36 99-20 122 13 20 14 28 4 40-6 8-20 12-29 9-18-6-24 10-54 143-13 58-13 67 7 137 21 73 23 75 53 75s114 50 114 69c0 5-7 14-15 21-12 10-20 7-46-14-28-23-59-34-59-21 0 3 7 17 16 30 12 19 15 39 11 80-5 50-11 61-69 128-34 39-66 74-70 75-22 10-2 17 45 17 80 0 145 23 188 66 60 60 74 93 74 181-1 69-4 84-40 154-29 57-54 89-91 120-51 41-51 41-34 65 55 76 66 223 30 394-11 55-28 134-36 175-9 41-17 76-19 78s-6-21-9-50zm-1903-265c-7-2-19-2-25 0-7 3-2 5 12 5s19-2 13-5zm-10153-3769c0-52 97-276 160-369 36-54 46-75 21-45-34 41-87 121-114 176-45 89-99 272-76 258 5-3 9-12 9-20zm9055-1975c38-10 45-16 58-52 38-102 47-153 47-266 0-96 4-124 21-161 11-25 30-67 40-94 17-42 18-47 4-36-25 21-174 208-207 260-61 97-83 204-63 318 8 47 20 51 100 31zm415-2813c-28-126-110-429-120-439-17-19 39 224 96 411 19 62 34 116 34 119 0 4 2 4 4 2 3-3-4-45-14-93z" transform="matrix(.1 0 0 -.1 0 1090)"/></svg>